<svg width="260" height="56" viewBox="0 0 260 56" fill="none" xmlns="http://www.w3.org/2000/svg">
  <g clip-path="url(#clip0_14_2953)">
    <path fill-rule="evenodd" clip-rule="evenodd" d="M64.8526 38.9375H61.8526V15.75H64.8526V38.9275V38.9375ZM36.0976 38.9375V29.4525L44.3976 16.54H40.7376L34.5451 26.36L28.3226 16.54H24.6926L32.9876 29.5V38.9375H36.0976ZM54.3326 25.4875L54.4551 23.6275H57.1701V38.9375H54.4551L54.3326 37.0775C53.4476 38.2375 51.8326 39.2425 49.4226 39.2425C45.2126 39.2425 42.3476 35.8875 42.3476 31.2825C42.3476 26.6775 45.2151 23.3225 49.4226 23.3225C51.8326 23.3225 53.4476 24.3275 54.3326 25.4875ZM45.3651 31.2825C45.3651 34.455 47.2876 36.5875 49.9701 36.5875C52.0126 36.5875 53.2651 35.49 54.1801 33.995V28.5675C53.2651 27.0675 52.0151 25.975 49.9701 25.975C47.2801 25.975 45.3651 28.11 45.3651 31.2825ZM80.1301 25.4875L80.2526 23.6275H82.9651V38.9375H80.2526L80.1301 37.0775C79.2451 38.2375 77.6301 39.2425 75.2201 39.2425C71.0101 39.2425 68.1451 35.8875 68.1451 31.2825C68.1451 26.6775 71.0126 23.3225 75.2201 23.3225C77.6276 23.3225 79.2451 24.3275 80.1301 25.4875ZM71.1626 31.2825C71.1626 34.455 73.0851 36.5875 75.7676 36.5875C77.8101 36.5875 79.0626 35.49 79.9776 33.995V28.5675C79.0626 27.0675 77.8126 25.975 75.7676 25.975C73.0851 25.975 71.1626 28.11 71.1626 31.2825ZM101.138 29.8775V38.935H98.1376V30.06C98.1376 27.7425 96.7651 26.155 94.6001 26.155C92.8001 26.155 91.5801 27.2525 90.6351 28.595V38.9325H87.6351V23.6275H90.3501L90.4701 25.4875C91.3551 24.36 92.9701 23.3225 95.3201 23.3225C99.0301 23.3225 101.138 25.945 101.138 29.8775ZM114.248 23.6275H109.443V18.4425H106.443V23.6275H103.443V26.195H106.443V33.82C106.443 37.3575 108.548 39.25 111.81 39.25C112.968 39.279 114.11 38.9772 115.103 38.38L114.248 36.0325C113.803 36.32 113.09 36.5325 112.053 36.5325C110.498 36.5325 109.43 35.5525 109.43 33.7825V26.1875H114.248V23.6275ZM120.56 38.9375H117.56V23.6275H120.56V38.9375ZM134.03 27.3175L135.32 25C134.13 24.0225 132.28 23.3225 130.223 23.3175C126.653 23.3175 124.427 25.025 124.427 27.9225C124.427 30.3325 125.952 31.5825 129.52 32.4075C131.868 32.95 132.783 33.4075 132.783 34.6575C132.783 35.9675 131.533 36.5775 129.702 36.5775C128.064 36.6125 126.47 36.049 125.217 34.9925L123.845 37.3725C125.217 38.5 127.353 39.2325 129.67 39.2325C133.42 39.2325 135.8 37.38 135.8 34.4825C135.8 32.1675 134.183 30.7025 130.615 29.8475C128.298 29.3 127.412 28.9975 127.412 27.745C127.412 26.4925 128.51 25.975 130.217 25.975C131.605 25.971 132.951 26.4451 134.03 27.3175Z" fill="white"/>
    <path d="M121.048 18.6875C121.048 19.7658 120.173 20.64 119.095 20.64C118.017 20.64 117.143 19.7658 117.143 18.6875C117.143 17.6091 118.017 16.735 119.095 16.735C119.617 16.7225 120.12 16.9242 120.489 17.2931C120.858 17.662 121.06 18.1659 121.048 18.6875Z" fill="#FF6300"/>
  </g>
  <line x1="148.5" y1="17" x2="148.5" y2="40" stroke="white" stroke-opacity="0.2"/>
  <path d="M163.82 18V40H160V18H163.82Z" fill="white"/>
  <path d="M167.937 31.7047V31.3571C167.937 30.1786 168.109 29.0856 168.454 28.0783C168.799 27.0609 169.296 26.1795 169.945 25.4341C170.605 24.6786 171.406 24.0943 172.35 23.6813C173.303 23.2582 174.379 23.0467 175.576 23.0467C176.783 23.0467 177.859 23.2582 178.802 23.6813C179.756 24.0943 180.562 24.6786 181.222 25.4341C181.881 26.1795 182.383 27.0609 182.728 28.0783C183.073 29.0856 183.246 30.1786 183.246 31.3571V31.7047C183.246 32.8832 183.073 33.9762 182.728 34.9835C182.383 35.9908 181.881 36.8722 181.222 37.6277C180.562 38.3732 179.761 38.9574 178.817 39.3805C177.874 39.7935 176.804 40 175.606 40C174.399 40 173.319 39.7935 172.365 39.3805C171.421 38.9574 170.62 38.3732 169.961 37.6277C169.301 36.8722 168.799 35.9908 168.454 34.9835C168.109 33.9762 167.937 32.8832 167.937 31.7047ZM171.604 31.3571V31.7047C171.604 32.44 171.68 33.1351 171.832 33.7898C171.985 34.4446 172.223 35.0188 172.548 35.5124C172.872 36.0059 173.288 36.3938 173.795 36.6758C174.303 36.9579 174.906 37.0989 175.606 37.0989C176.286 37.0989 176.875 36.9579 177.372 36.6758C177.879 36.3938 178.295 36.0059 178.62 35.5124C178.944 35.0188 179.183 34.4446 179.335 33.7898C179.497 33.1351 179.578 32.44 179.578 31.7047V31.3571C179.578 30.6319 179.497 29.9469 179.335 29.3022C179.183 28.6474 178.939 28.0682 178.604 27.5645C178.28 27.0609 177.864 26.668 177.356 26.386C176.859 26.0939 176.266 25.9478 175.576 25.9478C174.886 25.9478 174.288 26.0939 173.78 26.386C173.283 26.668 172.872 27.0609 172.548 27.5645C172.223 28.0682 171.985 28.6474 171.832 29.3022C171.68 29.9469 171.604 30.6319 171.604 31.3571Z" fill="white"/>
  <path d="M196.045 18V40H192.256V18H196.045ZM203 18V21.022H185.362V18H203Z" fill="white"/>
  <defs>
    <clipPath id="clip0_14_2953">
      <rect width="112" height="25" fill="white" transform="translate(24 15)"/>
    </clipPath>
  </defs>
</svg>
